<svg width="1747" height="1028" viewBox="0 0 1747 1028" xmlns="http://www.w3.org/2000/svg" xmlns:xlink="http://www.w3.org/1999/xlink"><defs><style>@import url("https://www.dafontfree.net/embed/Y29taWMtc2Fucy1tcy1yZWd1bGFyJmRhdGEvNDAvYy8xMDA5MzQvQ09NSUMuVFRG");text {white-space: pre;};
</style></defs><rect fill="#ffffff" width="1920" height="1080"></rect><g><g id="cLqIPyV4kZkR_ToUGVUfg" pointer-events="auto"><g><path data-shape-part="outline" class="" d="M762.555 468.746 C776.8187061409791 469.8782708395497, 796.4440361741985 474.18974174647155, 817.75 481 M762.555 468.746 C779.4263087851111 472.69818678674756, 797.7103768330901 475.2057987701515, 817.75 481" stroke="#B4DFF0" stroke-width="10" stroke-opacity="1" fill="none" stroke-linecap="round" stroke-dashoffset="-3"></path></g><path d="M762.555,468.746L817.75,481" fill="none" fill-opacity="0" stroke="black" stroke-opacity="0" stroke-width="10" id="hit-cLqIPyV4kZkR_ToUGVUfg"></path></g></g><g><g id="REodD01i_q_ibkl6RwdzD" pointer-events="auto"><g><path data-shape-part="outline" class="" d="M714.565 476.308 C715.3782236953876 493.83585605106947, 714.8557758409581 507.7221289825752, 714.165 531 M714.565 476.308 C715.5715879585978 489.8384446606427, 716.3116664187249 500.871265391852, 714.165 531" stroke="#B4DFF0" stroke-width="10" stroke-opacity="1" fill="none" stroke-linecap="round" stroke-dashoffset="-3"></path></g><path d="M714.565,476.308L714.165,531" fill="none" fill-opacity="0" stroke="black" stroke-opacity="0" stroke-width="10" id="hit-REodD01i_q_ibkl6RwdzD"></path></g></g><g><g id="_cuGYHrEThLVNA0KLoexO" pointer-events="auto"><g><path data-shape-part="outline" class="" d="M675.341 394.939 C680.3154832208996 407.07562838001866, 688.77000846829 410.78014403362084, 702.796 439 M675.341 394.939 C683.6043036194206 404.8490875160418, 689.5337430203516 415.43940692898155, 702.796 439" stroke="#8ed1fc" stroke-width="10" stroke-opacity="1" fill="none" stroke-linecap="round" stroke-dashoffset="-3"></path></g><path d="M675.341,394.939L702.796,439" fill="none" fill-opacity="0" stroke="black" stroke-opacity="0" stroke-width="10" id="hit-_cuGYHrEThLVNA0KLoexO"></path></g></g><g><g id="R7VOfIeNhL-aMTD_G3Ls-" pointer-events="auto"><g><path data-shape-part="outline" class="" d="M796.117 316 C783.7691119233145 308.87525654350196, 772.0486035533112 299.61949781885386, 754.735 284.308 M796.117 316 C786.8933407737136 309.0872920344328, 775.8976796292784 301.35616099065334, 754.735 284.308" stroke="#F7EAA6" stroke-width="10" stroke-opacity="1" fill="none" stroke-linecap="round" stroke-dashoffset="-3"></path></g><path d="M796.117,316L754.735,284.308" fill="none" fill-opacity="0" stroke="black" stroke-opacity="0" stroke-width="10" id="hit-R7VOfIeNhL-aMTD_G3Ls-"></path></g></g><g><g id="WYdEg8nwrRGltPU48jgu4" pointer-events="auto"><g><path data-shape-part="outline" class="" d="M854.004 353.355 C864.7919234030267 358.8269554587863, 875.8317517111511 366.61299630072244, 900.526 380 M854.004 353.355 C865.864634525043 360.17347630881926, 878.554108646529 366.7515054770833, 900.526 380" stroke="#F7EAA6" stroke-width="10" stroke-opacity="1" fill="none" stroke-linecap="round" stroke-dashoffset="-3"></path></g><path d="M854.004,353.355L900.526,380" fill="none" fill-opacity="0" stroke="black" stroke-opacity="0" stroke-width="10" id="hit-WYdEg8nwrRGltPU48jgu4"></path></g></g><g><g id="m6m0WCAHSOAWwx6gBaPTC" pointer-events="auto"><g><path data-shape-part="outline" class="" d="M880.984 328.969 C900.4974476224531 329.82181460039214, 915.2071439489126 323.80152343077145, 940.5 323.597 M880.984 328.969 C901.1603645180527 328.9504990314805, 921.7015578965418 324.82026079945905, 940.5 323.597" stroke="#F7EAA6" stroke-width="10" stroke-opacity="1" fill="none" stroke-linecap="round" stroke-dashoffset="-3"></path></g><path d="M880.984,328.969L940.5,323.597" fill="none" fill-opacity="0" stroke="black" stroke-opacity="0" stroke-width="10" id="hit-m6m0WCAHSOAWwx6gBaPTC"></path></g></g><g><g id="1XjYrtqsgf-QdAc5OlRxi" pointer-events="auto"><g><path data-shape-part="outline" class="" d="M838.369 316 C849.774244506399 300.23011152141356, 866.1289086879219 292.8092585464846, 877.064 275.355 M838.369 316 C849.7810605116863 303.4933091720257, 859.4202750257704 294.4683733406354, 877.064 275.355" stroke="#F7EAA6" stroke-width="10" stroke-opacity="1" fill="none" stroke-linecap="round" stroke-dashoffset="-3"></path></g><path d="M838.369,316L877.064,275.355" fill="none" fill-opacity="0" stroke="black" stroke-opacity="0" stroke-width="10" id="hit-1XjYrtqsgf-QdAc5OlRxi"></path></g></g><g><g id="fxFa9vvKTV_nFFQ_uyJpc" pointer-events="auto"><g><path data-shape-part="outline" class="" d="M706.776 362.221 C723.7776867279738 357.6379819593624, 746.2079583737313 353.2664244298376, 760.5 349.24 M706.776 362.221 C724.5409191439152 358.7012490781149, 744.5537106674939 352.3258305006741, 760.5 349.24" stroke="#8ed1fc" stroke-width="10" stroke-opacity="1" fill="none" stroke-linecap="round" stroke-dashoffset="-3"></path></g><path d="M706.776,362.221L760.5,349.24" fill="none" fill-opacity="0" stroke="black" stroke-opacity="0" stroke-width="10" id="hit-fxFa9vvKTV_nFFQ_uyJpc"></path></g></g><g><g id="VQHyxESvqUhRDWHMxIR0f" pointer-events="auto"><g><path data-shape-part="outline" class="" d="M642.488 180 C657.5113340173871 173.49336924007793, 673.7684266467852 164.05555178741733, 692.809 155.308 M642.488 180 C655.1748664300874 174.05781195438342, 665.4103660085308 168.638694142248, 692.809 155.308" stroke="#F5A6C4" stroke-width="10" stroke-opacity="1" fill="none" stroke-linecap="round" stroke-dashoffset="-3"></path></g><path d="M642.488,180L692.809,155.308" fill="none" fill-opacity="0" stroke="black" stroke-opacity="0" stroke-width="10" id="hit-VQHyxESvqUhRDWHMxIR0f"></path></g></g><g><g id="gaE-nRDjcLXfwMGR0CcMg" pointer-events="auto"><g><path data-shape-part="outline" class="" d="M589.253 180 C573.8316247705677 166.49219488621074, 560.1317177950191 146.04374407437462, 554.868 137.308 M589.253 180 C575.4782856458864 163.28304191439133, 564.4584789341941 148.99109208473843, 554.868 137.308" stroke="#F5A6C4" stroke-width="10" stroke-opacity="1" fill="none" stroke-linecap="round" stroke-dashoffset="-3"></path></g><path d="M589.253,180L554.868,137.308" fill="none" fill-opacity="0" stroke="black" stroke-opacity="0" stroke-width="10" id="hit-gaE-nRDjcLXfwMGR0CcMg"></path></g></g><g><g id="Z7kyUl4jlqNWDWALSBFmw" pointer-events="auto"><g><path data-shape-part="outline" class="" d="M587.993 273 C587.9188236698797 258.4558573617262, 593.7855105666441 244.8992353103378, 600.257 217.308 M587.993 273 C590.5766162545996 252.60293428107096, 595.4507858291233 236.01316016792885, 600.257 217.308" stroke="#F5A6C4" stroke-width="10" stroke-opacity="1" fill="none" stroke-linecap="round" stroke-dashoffset="-3"></path></g><path d="M587.993,273L600.257,217.308" fill="none" fill-opacity="0" stroke="black" stroke-opacity="0" stroke-width="10" id="hit-Z7kyUl4jlqNWDWALSBFmw"></path></g></g><g><g id="yDlwCo2WAtCS3vw9la6rN" pointer-events="auto"><g><path data-shape-part="outline" class="" d="M413.878 234 C407.1185282826298 221.62524414440628, 402.13586049340347 203.9775239068159, 392.813 184.308 M413.878 234 C405.8459398848891 218.27023024910602, 400.2010306707259 203.7354729925758, 392.813 184.308" stroke="#F5A6C4" stroke-width="10" stroke-opacity="1" fill="none" stroke-linecap="round" stroke-dashoffset="-3"></path></g><path d="M413.878,234L392.813,184.308" fill="none" fill-opacity="0" stroke="black" stroke-opacity="0" stroke-width="10" id="hit-yDlwCo2WAtCS3vw9la6rN"></path></g></g><g><g id="ydwbzjwcjvQ-JZBa6flKx" pointer-events="auto"><g><path data-shape-part="outline" class="" d="M374.5 245.814 C355.2605826938318 239.46744713236345, 331.2078474945434 239.96999515065355, 318.391 237.958 M374.5 245.814 C361.40773153074986 245.02964478769252, 346.89443673046173 241.12912125880518, 318.391 237.958" stroke="#F5A6C4" stroke-width="10" stroke-opacity="1" fill="none" stroke-linecap="round" stroke-dashoffset="-3"></path></g><path d="M374.5,245.814L318.391,237.958" fill="none" fill-opacity="0" stroke="black" stroke-opacity="0" stroke-width="10" id="hit-ydwbzjwcjvQ-JZBa6flKx"></path></g></g><g><g id="9bJuUgjK56qqyk4hs9_Ba" pointer-events="auto"><g><path data-shape-part="outline" class="" d="M523.5 277.156 C506.5062695330665 271.27553686178106, 483.664756706734 266.55826010635866, 468.977 264.006 M523.5 277.156 C506.1915906390622 271.24976752990113, 485.7834598967358 268.49478087046367, 468.977 264.006" stroke="#F5A6C4" stroke-width="10" stroke-opacity="1" fill="none" stroke-linecap="round" stroke-dashoffset="-3"></path></g><path d="M523.5,277.156L468.977,264.006" fill="none" fill-opacity="0" stroke="black" stroke-opacity="0" stroke-width="10" id="hit-9bJuUgjK56qqyk4hs9_Ba"></path></g></g><g><g id="dEmhDs4f9chJnvjtuytA2" pointer-events="auto"><g><path data-shape-part="outline" class="" d="M641.18 351.735 C635.8368336212836 340.85094483304954, 627.3179520923429 334.49677370258763, 601.657 310.308 M641.18 351.735 C633.5927174163122 345.0181520982808, 624.1857372370872 336.87692272980263, 601.657 310.308" stroke="#8ed1fc" stroke-width="10" stroke-opacity="1" fill="none" stroke-linecap="round" stroke-dashoffset="-3"></path></g><path d="M641.18,351.735L601.657,310.308" fill="none" fill-opacity="0" stroke="black" stroke-opacity="0" stroke-width="10" id="hit-dEmhDs4f9chJnvjtuytA2"></path></g></g><g><g id="KEwbYh7hGntHrd44lErCr" pointer-events="auto"><g><path data-shape-part="outline" class="" d="M349.847 389 C343.30659097111595 372.9846228499054, 336.64169260865503 360.90426260910215, 329.473 342.308 M349.847 389 C346.58652728080455 379.2922789786962, 340.42799847072683 366.674190630407, 329.473 342.308" stroke="#C896EF" stroke-width="10" stroke-opacity="1" fill="none" stroke-linecap="round" stroke-dashoffset="-3"></path></g><path d="M349.847,389L329.473,342.308" fill="none" fill-opacity="0" stroke="black" stroke-opacity="0" stroke-width="10" id="hit-KEwbYh7hGntHrd44lErCr"></path></g></g><g><g id="w2Za1nJCiic8R2cGgLW3E" pointer-events="auto"><g><path data-shape-part="outline" class="" d="M304.5 426.306 C287.7047674111914 429.93749641386427, 271.09047272127265 439.68021022098316, 250.233 445 M304.5 426.306 C291.8822899805343 430.9717876749323, 281.8669125081781 433.83046243403027, 250.233 445" stroke="#C896EF" stroke-width="10" stroke-opacity="1" fill="none" stroke-linecap="round" stroke-dashoffset="-3"></path></g><path d="M304.5,426.306L250.233,445" fill="none" fill-opacity="0" stroke="black" stroke-opacity="0" stroke-width="10" id="hit-w2Za1nJCiic8R2cGgLW3E"></path></g></g><g><g id="dP3SJDIQYYTosEz0j3Spk" pointer-events="auto"><g><path data-shape-part="outline" class="" d="M304.5 397.185 C284.53619854746427 395.5805455075669, 265.32658718189884 390.4031473016297, 246.891 386.056 M304.5 397.185 C289.27064626921623 393.48425082119377, 273.5376302982274 389.77249487528144, 246.891 386.056" stroke="#C896EF" stroke-width="10" stroke-opacity="1" fill="none" stroke-linecap="round" stroke-dashoffset="-3"></path></g><path d="M304.5,397.185L246.891,386.056" fill="none" fill-opacity="0" stroke="black" stroke-opacity="0" stroke-width="10" id="hit-dP3SJDIQYYTosEz0j3Spk"></path></g></g><g><g id="iDRprr-EhPMrwKRjqDkjn" pointer-events="auto"><g><path data-shape-part="outline" class="" d="M472.5 421.888 C453.29564317194365 417.5170806050753, 432.0387414478371 417.4130818729219, 411.641 414.377 M472.5 421.888 C461.02555696843064 422.14956365553076, 445.54591784901015 419.86628812474476, 411.641 414.377" stroke="#C896EF" stroke-width="10" stroke-opacity="1" fill="none" stroke-linecap="round" stroke-dashoffset="-3"></path></g><path d="M472.5,421.888L411.641,414.377" fill="none" fill-opacity="0" stroke="black" stroke-opacity="0" stroke-width="10" id="hit-iDRprr-EhPMrwKRjqDkjn"></path></g></g><g><g id="l3T0neN_sCS4BpuRxTs-z" pointer-events="auto"><g><path data-shape-part="outline" class="" d="M410.5 595.25 C393.5173611288336 597.0658791601866, 376.38022130435564 596.0996432609082, 354.32 592.576 M410.5 595.25 C398.80492681603425 596.2911649336778, 383.30335511849927 593.6901702382943, 354.32 592.576" stroke="#C896EF" stroke-width="10" stroke-opacity="1" fill="none" stroke-linecap="round" stroke-dashoffset="-3"></path></g><path d="M410.5,595.25L354.32,592.576" fill="none" fill-opacity="0" stroke="black" stroke-opacity="0" stroke-width="10" id="hit-l3T0neN_sCS4BpuRxTs-z"></path></g></g><g><g id="j72iVmCWbJm7_w8BwsEcO" pointer-events="auto"><g><path data-shape-part="outline" class="" d="M425.638 615.308 C417.84126445262893 625.3643234361444, 411.22154001530095 635.1285310289153, 393.071 660 M425.638 615.308 C417.3674296461239 624.8016834745871, 411.033281873979 634.7465945776178, 393.071 660" stroke="#C896EF" stroke-width="10" stroke-opacity="1" fill="none" stroke-linecap="round" stroke-dashoffset="-3"></path></g><path d="M425.638,615.308L393.071,660" fill="none" fill-opacity="0" stroke="black" stroke-opacity="0" stroke-width="10" id="hit-j72iVmCWbJm7_w8BwsEcO"></path></g></g><g><g id="sS-u8FB8zrHCp5fxl2hBB" pointer-events="auto"><g><path data-shape-part="outline" class="" d="M464.978 615.308 C481.45299295745247 628.9104630038174, 492.94506457097225 638.3594376884262, 508.681 647 M464.978 615.308 C482.3792305766592 625.9369920270102, 496.10715575813504 636.4989261718401, 508.681 647" stroke="#C896EF" stroke-width="10" stroke-opacity="1" fill="none" stroke-linecap="round" stroke-dashoffset="-3"></path></g><path d="M464.978,615.308L508.681,647" fill="none" fill-opacity="0" stroke="black" stroke-opacity="0" stroke-width="10" id="hit-sS-u8FB8zrHCp5fxl2hBB"></path></g></g><g><g id="v3xWWfelI1plazG6C3Uba" pointer-events="auto"><g><path data-shape-part="outline" class="" d="M505.615 540.308 C486.7507073002955 558.0772695746873, 471.434627533816 568.1033797827454, 461.483 578 M505.615 540.308 C486.13178847613176 554.0447058947279, 470.0955969154316 570.2837121581811, 461.483 578" stroke="#C896EF" stroke-width="10" stroke-opacity="1" fill="none" stroke-linecap="round" stroke-dashoffset="-3"></path></g><path d="M505.615,540.308L461.483,578" fill="none" fill-opacity="0" stroke="black" stroke-opacity="0" stroke-width="10" id="hit-v3xWWfelI1plazG6C3Uba"></path></g></g><g><g id="GZ9YdE4obMQeF7nBxP-nW" pointer-events="auto"><g><path data-shape-part="outline" class="" d="M487.5 515.969 C472.68885667394727 511.444161277038, 463.2772859599027 510.7229689027072, 439.492 509.172 M487.5 515.969 C467.81431924550446 513.7801479607189, 450.44396487638863 510.51018516699315, 439.492 509.172" stroke="#C896EF" stroke-width="10" stroke-opacity="1" fill="none" stroke-linecap="round" stroke-dashoffset="-3"></path></g><path d="M487.5,515.969L439.492,509.172" fill="none" fill-opacity="0" stroke="black" stroke-opacity="0" stroke-width="10" id="hit-GZ9YdE4obMQeF7nBxP-nW"></path></g></g><g><g id="0tdZQauxn_vTWnJP077Yo" pointer-events="auto"><g><path data-shape-part="outline" class="" d="M520.363 446.308 C520.4927436663817 461.9913376474721, 524.848157339853 478.0946286572257, 525.895 503 M520.363 446.308 C521.6739608816406 459.1104722413597, 523.7322183793041 475.12790856408486, 525.895 503" stroke="#C896EF" stroke-width="10" stroke-opacity="1" fill="none" stroke-linecap="round" stroke-dashoffset="-3"></path></g><path d="M520.363,446.308L525.895,503" fill="none" fill-opacity="0" stroke="black" stroke-opacity="0" stroke-width="10" id="hit-0tdZQauxn_vTWnJP077Yo"></path></g></g><g><g id="_HK2OP16cQCZQLcN0sqpe" pointer-events="auto"><g><path data-shape-part="outline" class="" d="M619.961 388.906 C609.0151006574299 393.246478991988, 595.5019775719126 397.62158465294624, 564.383 410.265 M619.961 388.906 C607.0529418980151 395.23994352582304, 593.9684824277736 400.2591151653955, 564.383 410.265" stroke="#8ed1fc" stroke-width="10" stroke-opacity="1" fill="none" stroke-linecap="round" stroke-dashoffset="-3"></path></g><path d="M619.961,388.906L564.383,410.265" fill="none" fill-opacity="0" stroke="black" stroke-opacity="0" stroke-width="10" id="hit-_HK2OP16cQCZQLcN0sqpe"></path></g></g><g><g transform="translate(610.5, 336)  rotate(0)  "><g><path d="M11.217528033447266 29.522047691345215 C12.091112183597684 25.502559602186082, 2.993904614380002 35.46961056129634, 0.010225640869140625 38.530914068603515 C-4.072349301883579 43.98488630220592, 15.17580022728741 42.85464398586452, 11.074369061279295 46.6708296081543 C11.578195511463283 42.077406439420585, 5.612519405868649 57.35475064041316, 13.620553637695311 56.764027799987794 C24.900636400249596 64.82793171274365, 36.18177580368817 49.933148603555566, 34.69559946899414 52.31529658813477 C36.83023584616482 53.34785899412334, 31.46557074520886 62.29595870659054, 45.15643007812499 60.5666160812378 C53.380675508144485 63.51756673204602, 59.336620404747116 52.01777971203029, 58.61337346191405 54.16460221710205 C58.144231143024555 58.59572710210979, 66.6818258137971 63.17999222442806, 72.25437838134765 59.705092173767085 C84.61673517878353 56.87017291834056, 79.40965469696819 49.313620491525526, 83.25716795654296 52.22617342529296 C85.8145020685464 51.70109394361674, 98.11584619610608 55.647894838640084, 101.50993690795899 46.89363751525878 C100.85001804888547 40.243382002279155, 94.4881482604295 33.09623560421168, 96.27440878295899 35.27791862487792 C96.6533182028085 36.01452418081461, 100.78981469853223 26.5077417689532, 92.23528063964844 23.120033827209465 C79.7873787754327 20.574994707128397, 71.39628365738689 19.84780912601649, 74.74943475341796 24.20436564178466 C73.00986210806667 21.693201889631144, 75.62108278591928 18.911413004991402, 65.62816309814451 13.999763496398916 C55.61166043703853 11.514408316823829, 51.85567844765483 15.024645724603525, 54.564019677734365 17.36416289367675 C53.73075134413539 17.0684317377299, 54.13619102223217 15.49971228363215, 44.103189068603506 14.111167449951163 C38.93021954005062 11.340386518499246, 40.31625841858684 22.41160895435511, 36.62824559326171 18.344517684936513 C40.390911698368186 19.600077279493203, 31.75263447583018 15.706878037187447, 29.449845703124993 15.849069125366203 C21.409222820308795 20.193504115316262, 23.380903160026662 18.9319404565066, 24.705148339843742 19.971015406799307 C25.918222760608785 18.28638015615641, 13.22875960057079 12.720718558809153, 7.474943475341788 20.40177736053466 C4.00863227122127 29.83288298990427, 10.81225653794109 25.86168811313807, 11.217528033447257 29.522047691345204 C11.217528033447262 29.522047691345207, 11.217528033447262 29.52204769134521, 11.217528033447266 29.522047691345215" stroke="none" stroke-width="0" fill="#8ed1fc" vector-effect="non-scaling-stroke" data-shape-part="fill" stroke-opacity="1" fill-opacity="1"></path><path d="M11.217528033447266 29.522047691345215 C11.00705533232987 27.794292053505778, -0.7889377326458692 28.686677275463936, 0.010225640869140625 38.530914068603515 M11.217528033447266 29.522047691345215 C13.791245760866254 30.950467933360486, -0.7230412659920754 33.17501912075653, 0.010225640869140625 38.530914068603515 M0.010225640869140625 38.530914068603515 C1.5232814183741807 44.67538386449516, 13.383629491093753 48.98103718185127, 11.074369061279295 46.6708296081543 M0.010225640869140625 38.530914068603515 C0.3512532824002206 43.70523226546422, 7.795792668505757 44.90977403666154, 11.074369061279295 46.6708296081543 M11.074369061279295 46.6708296081543 C11.14959382033646 47.84517405652702, 4.32316475072205 52.51619205894172, 13.620553637695311 56.764027799987794 M11.074369061279295 46.6708296081543 C11.925990369363873 45.08299215878621, 4.240778904028982 52.168986337820435, 13.620553637695311 56.764027799987794 M13.620553637695311 56.764027799987794 C21.153745596078036 59.46192354726494, 36.80161998105347 54.03143420409859, 34.69559946899414 52.31529658813477 M13.620553637695311 56.764027799987794 C19.029499142118542 60.56134446849004, 37.24890843789205 55.29253425909654, 34.69559946899414 52.31529658813477 M34.69559946899414 52.31529658813477 C35.599612508538364 51.92872842740715, 34.21398478780091 60.59020866737068, 45.15643007812499 60.5666160812378 M34.69559946899414 52.31529658813477 C35.44694442610368 54.08772122277394, 30.955209938307853 57.369448788038646, 45.15643007812499 60.5666160812378 M45.15643007812499 60.5666160812378 C54.548239497902976 59.79891636418999, 61.164713626530755 53.90568843002021, 58.61337346191405 54.16460221710205 M45.15643007812499 60.5666160812378 C56.03566022400482 63.98478602637426, 60.979176923342784 51.963488843408975, 58.61337346191405 54.16460221710205 M58.61337346191405 54.16460221710205 C61.35801560225784 54.78535875196159, 63.19119580998718 60.17907831535042, 72.25437838134765 59.705092173767085 M58.61337346191405 54.16460221710205 C61.42532463640793 53.059746211139114, 60.24823776824101 62.651445186010754, 72.25437838134765 59.705092173767085 M72.25437838134765 59.705092173767085 C80.60963653083145 57.01133762349784, 84.37113734402953 52.64247678985297, 83.25716795654296 52.22617342529296 M72.25437838134765 59.705092173767085 C83.44292243504151 58.555219747344395, 83.40513754136188 53.366002219835664, 83.25716795654296 52.22617342529296 M83.25716795654296 52.22617342529296 C83.3230300179988 51.45374196042716, 96.18826565175354 54.207438397595276, 101.50993690795899 46.89363751525878 M83.25716795654296 52.22617342529296 C83.92967041678055 50.09243155411854, 96.67364272830113 57.744300426451105, 101.50993690795899 46.89363751525878 M101.50993690795899 46.89363751525878 C105.5330455815822 38.66541280584037, 97.53706696362794 37.05095769576727, 96.27440878295899 35.27791862487792 M101.50993690795899 46.89363751525878 C107.51670716194735 38.893558612052345, 96.16327862202749 32.213920300547024, 96.27440878295899 35.27791862487792 M96.27440878295899 35.27791862487792 C95.61083158583939 37.743036464974274, 103.80628336949647 28.466957883831853, 92.23528063964844 23.120033827209465 M96.27440878295899 35.27791862487792 C98.04647009729966 35.14962316388263, 105.3528263748847 28.144370979086304, 92.23528063964844 23.120033827209465 M92.23528063964844 23.120033827209465 C81.2792275571376 20.007536384484165, 75.21559129758178 26.046908973690858, 74.74943475341796 24.20436564178466 M92.23528063964844 23.120033827209465 C79.38808781170472 20.400884593764687, 73.42700147759541 20.927708411470793, 74.74943475341796 24.20436564178466 M74.74943475341796 24.20436564178466 C75.77450911803543 23.56902009153067, 70.04150667805968 13.593110513684143, 65.62816309814451 13.999763496398916 M74.74943475341796 24.20436564178466 C74.4991249902211 23.401786366359136, 75.00235892283541 17.99181808354034, 65.62816309814451 13.999763496398916 M65.62816309814451 13.999763496398916 C58.18493178611099 14.695699393364777, 56.75723415570556 16.020229041287294, 54.564019677734365 17.36416289367675 M65.62816309814451 13.999763496398916 C57.264126212926946 9.089876226416965, 55.067142417880135 15.601952470270536, 54.564019677734365 17.36416289367675 M54.564019677734365 17.36416289367675 C54.16458642440139 20.32159125775992, 50.999382391408076 11.010293774029604, 44.103189068603506 14.111167449951163 M54.564019677734365 17.36416289367675 C56.608471405359346 14.393507079211613, 50.247999686118206 15.515726726690671, 44.103189068603506 14.111167449951163 M44.103189068603506 14.111167449951163 C34.91142102485001 15.517259269615998, 34.54082757535278 20.589375202938903, 36.62824559326171 18.344517684936513 M44.103189068603506 14.111167449951163 C38.97639762196168 11.70257844714298, 39.08284598023518 17.559797281328578, 36.62824559326171 18.344517684936513 M36.62824559326171 18.344517684936513 C38.1598955422908 20.61920726804434, 35.77631182790099 12.236339847180238, 29.449845703124993 15.849069125366203 M36.62824559326171 18.344517684936513 C38.9236538800679 19.797930106822392, 32.70646248309238 11.938616590849302, 29.449845703124993 15.849069125366203 M29.449845703124993 15.849069125366203 C23.878768259194484 14.821384566399445, 21.798157396367184 18.611182849881043, 24.705148339843742 19.971015406799307 M29.449845703124993 15.849069125366203 C24.115287524648746 13.842847309104343, 26.326210504504285 17.362765735880277, 24.705148339843742 19.971015406799307 M24.705148339843742 19.971015406799307 C25.99222231154739 18.318703513619294, 12.709547691395871 15.442650776287906, 7.474943475341788 20.40177736053466 M24.705148339843742 19.971015406799307 C25.746770754190525 19.826578340426824, 10.3353125176154 12.93657721916809, 7.474943475341788 20.40177736053466 M7.474943475341788 20.40177736053466 C0.30084173255263735 27.87579091634451, 8.420773734715572 27.395293614193786, 11.217528033447257 29.522047691345204 M7.474943475341788 20.40177736053466 C0.8649766643963651 24.93308594493045, 13.209098606654248 26.925186966005704, 11.217528033447257 29.522047691345204 M11.217528033447257 29.522047691345204 C11.217528033447259 29.522047691345207, 11.217528033447262 29.52204769134521, 11.217528033447266 29.522047691345215 M11.217528033447257 29.522047691345204 C11.21752803344726 29.522047691345207, 11.217528033447264 29.52204769134521, 11.217528033447266 29.522047691345215" stroke="#000000" stroke-width="1" fill="none" vector-effect="non-scaling-stroke" data-shape-part="outline" stroke-opacity="1" fill-opacity="1"></path></g></g><g transform="translate(625.8384613037109, 347.1403953552246) rotate(0)"><text transform="translate(0, 16)" style="font-size: 14px; font-family: &quot;Comic Sans MS&quot;; fill: rgb(17, 17, 17); opacity: 1; stroke-width: 0; font-style: normal; font-weight: normal; text-decoration: none;"><tspan dominant-baseline="text-before-edge" x="9.359375" y="0">Jornada</tspan></text></g></g><g><g transform="translate(472.5, 409)  rotate(0)  "><g><path d="M2.9844655031338334 -2.8656982267275453 L91.76371013466269 -1.1902771973982453 L92.01221688929945 37.78707616683096 L-0.874292797408998 38.32017656322569" stroke="none" stroke-width="0" fill="#C896EF" vector-effect="non-scaling-stroke" data-shape-part="fill" stroke-opacity="1" fill-opacity="1"></path><path d="M0 0 C36.634168453051096 2.620034682206715, 72.88426103443344 -0.6884682601169698, 91.8828125 0 M0 0 C25.139267882108836 2.151474409028633, 52.40125235823944 1.237147398516281, 91.8828125 0 M91.8828125 0 C92.18690303665072 13.163773757392898, 91.06079895001322 20.375140131425827, 91.8828125 37.30780029296875 M91.8828125 0 C92.64016902274687 6.189113373820368, 93.15740822083552 15.52143485322348, 91.8828125 37.30780029296875 M91.8828125 37.30780029296875 C61.21197027894449 38.31337558067087, 37.29385015079314 39.058215457561055, 0 37.30780029296875 M91.8828125 37.30780029296875 C72.4688466926942 39.807679556866894, 51.68915407497406 38.13061241116167, 0 37.30780029296875 M0 37.30780029296875 C2.065290366563671 31.87827946475658, 0.9633275915716817 20.77398867526925, 0 0 M0 37.30780029296875 C-1.1550395079764062 29.252592209541902, -1.2172690369995767 19.599913951105837, 0 0" stroke="#000000" stroke-width="1" fill="none" vector-effect="non-scaling-stroke" data-shape-part="outline" stroke-opacity="1" fill-opacity="1"></path></g></g><g transform="translate(477.094140625, 410.8653900146484) rotate(0)"><text transform="translate(0, 7)" style="font-size: 14px; font-family: &quot;Comic Sans MS&quot;; fill: rgb(17, 17, 17); opacity: 1; stroke-width: 0; font-style: normal; font-weight: normal; text-decoration: none;"><tspan dominant-baseline="text-before-edge" x="7.5078125" y="0">Apostador</tspan></text></g></g><g><g transform="translate(487.5, 503)  rotate(0)  "><g><path d="M-2.6521528204903007 -0.06879788730293512 L77.68999450001866 -2.767677099443972 L78.09154524002224 37.795893906615674 L-1.2331756493076682 36.68603256251663" stroke="none" stroke-width="0" fill="#C896EF" vector-effect="non-scaling-stroke" data-shape-part="fill" stroke-opacity="1" fill-opacity="1"></path><path d="M0 0 C25.672387818907012 -2.0052625923371306, 54.47833742873482 1.5790474326395998, 80.6328125 0 M0 0 C20.11437062737896 -0.054178104879647415, 41.00511609353853 0.5107914496638477, 80.6328125 0 M80.6328125 0 C82.64441934850363 12.275482696526167, 82.06598157313017 28.65760541809433, 80.6328125 37.30780029296875 M80.6328125 0 C80.3789615318042 12.35714621409415, 80.43406076578914 23.5291157432015, 80.6328125 37.30780029296875 M80.6328125 37.30780029296875 C52.57405945019927 34.841940081340766, 30.301420378762117 34.512811309320426, 0 37.30780029296875 M80.6328125 37.30780029296875 C50.61490872418143 36.38020682410508, 22.086779882844702 37.99968935624867, 0 37.30780029296875 M0 37.30780029296875 C1.479298929767252 25.070187990516928, 1.8187860353752385 15.80700253781032, 0 0 M0 37.30780029296875 C-0.17398804530168577 24.977002506694866, 1.0736227472159763 10.082192625554498, 0 0" stroke="#000000" stroke-width="1" fill="none" vector-effect="non-scaling-stroke" data-shape-part="outline" stroke-opacity="1" fill-opacity="1"></path></g></g><g transform="translate(491.531640625, 504.8653900146484) rotate(0)"><text transform="translate(0, 7)" style="font-size: 14px; font-family: &quot;Comic Sans MS&quot;; fill: rgb(17, 17, 17); opacity: 1; stroke-width: 0; font-style: normal; font-weight: normal; text-decoration: none;"><tspan dominant-baseline="text-before-edge" x="9.703125" y="0">Conexão</tspan></text></g></g><g><g transform="translate(304.5, 481)  rotate(0)  "><g><path d="M0.9660041397437453 -2.0141704296693206 L132.97136167343706 1.4530829871073365 L136.76104289945215 36.463344254530966 L1.2625685697421432 34.755230315960944" stroke="none" stroke-width="0" fill="#C896EF" vector-effect="non-scaling-stroke" data-shape-part="fill" stroke-opacity="1" fill-opacity="1"></path><path d="M0 0 C41.59916114693218 0.4496230364260674, 77.23086347109991 -1.0920832573952675, 134.99217224121094 0 M0 0 C27.30502559733249 2.5491001976715397, 55.385898149565755 -0.05381283927094227, 134.99217224121094 0 M134.99217224121094 0 C132.63798111913252 16.856932862902383, 132.90785828468847 26.083780608621137, 134.99217224121094 37.30780029296875 M134.99217224121094 0 C135.50632770162582 10.015225580372823, 136.1458015124178 21.62181935494947, 134.99217224121094 37.30780029296875 M134.99217224121094 37.30780029296875 C104.74011906620305 36.383451261003934, 75.33360196579628 33.34327275343748, 0 37.30780029296875 M134.99217224121094 37.30780029296875 C95.04386433628088 39.174249546310925, 56.94066019858565 37.81298899807694, 0 37.30780029296875 M0 37.30780029296875 C-2.812722974762986 25.233281841802686, -1.4978342888212897 18.025216495289087, 0 0 M0 37.30780029296875 C-1.764701998155271 25.01161420826906, 0.7961289674828897 15.87933514066252, 0 0" stroke="#000000" stroke-width="1" fill="none" vector-effect="non-scaling-stroke" data-shape-part="outline" stroke-opacity="1" fill-opacity="1"></path></g></g><g transform="translate(311.24960861206057, 482.8653900146484) rotate(0)"><text transform="translate(0, 7)" style="font-size: 14px; font-family: &quot;Comic Sans MS&quot;; fill: rgb(17, 17, 17); opacity: 1; stroke-width: 0; font-style: normal; font-weight: normal; text-decoration: none;"><tspan dominant-baseline="text-before-edge" x="7.84375" y="0">Conectar Wallet</tspan></text></g></g><g><g transform="translate(410.5, 578)  rotate(0)  "><g><path d="M0.8181040696799755 -1.298452477902174 L55.96293918415905 1.5998585410416126 L58.334134619683034 36.88252701237798 L-2.366527397185564 36.66381074860692" stroke="none" stroke-width="0" fill="#C896EF" vector-effect="non-scaling-stroke" data-shape-part="fill" stroke-opacity="1" fill-opacity="1"></path><path d="M0 0 C14.483813789882701 2.750647935733432, 30.45610777144321 -0.24244877351797184, 57.56250000000001 0 M0 0 C18.437098192772833 0.4254997490008828, 36.55858679073864 -0.37123059052624735, 57.56250000000001 0 M57.56250000000001 0 C56.7434842810662 14.88975580734757, 59.427790783408426 25.23044336120779, 57.56250000000001 37.30780029296875 M57.56250000000001 0 C57.00911912266095 7.780626590153884, 57.929345517791106 14.620064120320103, 57.56250000000001 37.30780029296875 M57.56250000000001 37.30780029296875 C33.44313099046704 37.38184351867414, 13.680715940846127 34.72124345248914, 0 37.30780029296875 M57.56250000000001 37.30780029296875 C39.00505388493184 37.9791492773185, 16.533448928268626 38.519283409226915, 0 37.30780029296875 M0 37.30780029296875 C-0.34077202018270214 31.96822320797885, -1.4185275905943842 19.354738897409923, 0 0 M0 37.30780029296875 C0.580346300696309 28.837273838026405, 0.11188937673466959 21.76366102142251, 0 0" stroke="#000000" stroke-width="1" fill="none" vector-effect="non-scaling-stroke" data-shape-part="outline" stroke-opacity="1" fill-opacity="1"></path></g></g><g transform="translate(413.378125, 579.8653900146485) rotate(0)"><text transform="translate(0, 7)" style="font-size: 14px; font-family: &quot;Comic Sans MS&quot;; fill: rgb(17, 17, 17); opacity: 1; stroke-width: 0; font-style: normal; font-weight: normal; text-decoration: none;"><tspan dominant-baseline="text-before-edge" x="8.6796875" y="0">Menu</tspan></text></g></g><g><g transform="translate(495.5, 647)  rotate(0)  "><g><path d="M1.0603714669123292 -0.808920674957335 L78.41041163448244 2.6753206020221114 L80.22109270934016 35.41616035159677 L1.9452650332823396 37.243096864782274" stroke="none" stroke-width="0" fill="#C896EF" vector-effect="non-scaling-stroke" data-shape-part="fill" stroke-opacity="1" fill-opacity="1"></path><path d="M0 0 C27.80286871622884 1.6431747297773471, 49.32831517662125 3.306865028573047, 77.8203125 0 M0 0 C27.194404665349435 0.6876253334980358, 52.365897390463225 0.7761963008146633, 77.8203125 0 M77.8203125 0 C75.70419962130532 13.380364035707279, 78.99964771591172 29.2392220515466, 77.8203125 37.35467529296875 M77.8203125 0 C77.74204343879278 13.558841360834, 78.90466575646455 26.984488316548134, 77.8203125 37.35467529296875 M77.8203125 37.35467529296875 C49.48533399445368 38.28999287284972, 22.035872364330856 38.915137563124915, 0 37.35467529296875 M77.8203125 37.35467529296875 C60.655716014265636 37.69944919135301, 44.953975399832416 36.958675409218955, 0 37.35467529296875 M0 37.35467529296875 C1.7574487093235425 27.365597825267145, -1.2993351754401752 14.657612277665692, 0 0 M0 37.35467529296875 C1.6573641047221341 27.79352386962678, 0.974846918914906 19.54172110075243, 0 0" stroke="#000000" stroke-width="1" fill="none" vector-effect="non-scaling-stroke" data-shape-part="outline" stroke-opacity="1" fill-opacity="1"></path></g></g><g transform="translate(499.391015625, 648.8677337646484) rotate(0)"><text transform="translate(0, 7)" style="font-size: 14px; font-family: &quot;Comic Sans MS&quot;; fill: rgb(17, 17, 17); opacity: 1; stroke-width: 0; font-style: normal; font-weight: normal; text-decoration: none;"><tspan dominant-baseline="text-before-edge" x="10.0625" y="0">Opção 1</tspan></text></g></g><g><g transform="translate(340.5, 660)  rotate(0)  "><g><path d="M2.68149047344923 0.226643867790699 L80.14645462483168 1.2065077498555183 L75.15590577572584 39.77768785506487 L-2.7606150582432747 39.70519883185625" stroke="none" stroke-width="0" fill="#C896EF" vector-effect="non-scaling-stroke" data-shape-part="fill" stroke-opacity="1" fill-opacity="1"></path><path d="M0 0 C27.456242036382903 -2.974355177897669, 56.33713968159864 -1.3518440294449101, 77.8203125 0 M0 0 C27.473010615230304 0.6306945411252672, 54.172711258323396 -1.2477168711138074, 77.8203125 0 M77.8203125 0 C75.05499739760012 9.20584472090227, 79.88749189489931 22.009042848055017, 77.8203125 37.35467529296875 M77.8203125 0 C77.04487769434768 11.60853726571627, 78.14509658644515 22.29261146422878, 77.8203125 37.35467529296875 M77.8203125 37.35467529296875 C50.14161102033104 36.40619858846039, 28.636183752247597 36.32120546445221, 0 37.35467529296875 M77.8203125 37.35467529296875 C50.72563412751187 37.525272838850796, 21.96881392901995 38.82275711752969, 0 37.35467529296875 M0 37.35467529296875 C2.3149602627988246 27.014330083849607, 0.39914848568395656 15.799277600591537, 0 0 M0 37.35467529296875 C-0.25159005353024666 25.489284955928767, 1.0158727960867577 17.732638252963714, 0 0" stroke="#000000" stroke-width="1" fill="none" vector-effect="non-scaling-stroke" data-shape-part="outline" stroke-opacity="1" fill-opacity="1"></path></g></g><g transform="translate(344.391015625, 661.8677337646484) rotate(0)"><text transform="translate(0, 7)" style="font-size: 14px; font-family: &quot;Comic Sans MS&quot;; fill: rgb(17, 17, 17); opacity: 1; stroke-width: 0; font-style: normal; font-weight: normal; text-decoration: none;"><tspan dominant-baseline="text-before-edge" x="8.9453125" y="0">Opção 2</tspan></text></g></g><g><g transform="translate(276.5, 572)  rotate(0)  "><g><path d="M0.18604231718927622 -1.551306956447661 L80.68221781495959 -2.968541585840285 L75.34942240361124 39.018832511268556 L2.5330845499411225 37.87898550089449" stroke="none" stroke-width="0" fill="#C896EF" vector-effect="non-scaling-stroke" data-shape-part="fill" stroke-opacity="1" fill-opacity="1"></path><path d="M0 0 C18.931180895907893 1.769283406906143, 32.579347607020466 0.15393813746453833, 77.8203125 0 M0 0 C22.78636275205427 -0.36282129818919195, 47.24069365387114 1.8346125460195255, 77.8203125 0 M77.8203125 0 C76.34723765707146 7.2494035684616005, 79.65209851718079 16.834456499688454, 77.8203125 37.35467529296875 M77.8203125 0 C78.23200695309626 14.34783735083142, 77.47990396711813 26.405161436250538, 77.8203125 37.35467529296875 M77.8203125 37.35467529296875 C53.07420291025555 36.804269819742224, 27.969611131965934 36.42198538709261, 0 37.35467529296875 M77.8203125 37.35467529296875 C54.60561615064144 37.890387331434724, 33.18683906641527 37.99669664103651, 0 37.35467529296875 M0 37.35467529296875 C-2.6466601144831126 23.935619656322565, -2.5808720540564005 15.032439648825754, 0 0 M0 37.35467529296875 C0.9651858673790107 25.363561854983757, -0.39078464942186975 14.034852280387813, 0 0" stroke="#000000" stroke-width="1" fill="none" vector-effect="non-scaling-stroke" data-shape-part="outline" stroke-opacity="1" fill-opacity="1"></path></g></g><g transform="translate(280.391015625, 573.8677337646484) rotate(0)"><text transform="translate(0, 7)" style="font-size: 14px; font-family: &quot;Comic Sans MS&quot;; fill: rgb(17, 17, 17); opacity: 1; stroke-width: 0; font-style: normal; font-weight: normal; text-decoration: none;"><tspan dominant-baseline="text-before-edge" x="8.9453125" y="0">Opção 3</tspan></text></g></g><g><g transform="translate(304.5, 389)  rotate(0)  "><g><path d="M0.4232090190052986 -1.2774435952305794 L105.66083962470292 -0.7198509648442268 L105.21470100432633 35.030605129897594 L-2.487716607749462 36.739427618682384" stroke="none" stroke-width="0" fill="#C896EF" vector-effect="non-scaling-stroke" data-shape-part="fill" stroke-opacity="1" fill-opacity="1"></path><path d="M0 0 C44.71124411368509 -0.9906447045231468, 86.18225356179754 -1.8165669552708275, 107.14062499999999 0 M0 0 C26.13893307322869 -0.5650192776502808, 52.84250007842201 -0.012789277154370171, 107.14062499999999 0 M107.14062499999999 0 C106.61541995469706 16.5488981198298, 106.03473743859904 27.315436334118658, 107.14062499999999 37.30780029296875 M107.14062499999999 0 C106.82392855400032 9.321971554999937, 107.09942110294288 16.865799678008536, 107.14062499999999 37.30780029296875 M107.14062499999999 37.30780029296875 C73.62724209955195 35.8914819188515, 33.069486826774664 34.006706518689754, 0 37.30780029296875 M107.14062499999999 37.30780029296875 C71.7237326254486 38.382520190160136, 33.678507483261626 39.49164258567558, 0 37.30780029296875 M0 37.30780029296875 C-3.3745132310869783 27.377988754045827, -0.686625800895938 12.711585570537771, 0 0 M0 37.30780029296875 C1.2171219860310998 25.774112023330645, 1.1843793665166344 10.340645123108061, 0 0" stroke="#000000" stroke-width="1" fill="none" vector-effect="non-scaling-stroke" data-shape-part="outline" stroke-opacity="1" fill-opacity="1"></path></g></g><g transform="translate(309.85703125, 390.8653900146484) rotate(0)"><text transform="translate(0, 7)" style="font-size: 14px; font-family: &quot;Comic Sans MS&quot;; fill: rgb(17, 17, 17); opacity: 1; stroke-width: 0; font-style: normal; font-weight: normal; text-decoration: none;"><tspan dominant-baseline="text-before-edge" x="7.328125" y="0">Nova Aposta</tspan></text></g></g><g><g transform="translate(99.5, 353)  rotate(0)  "><g><path d="M-1.1838436843827367 -1.3184888390824199 L144.61587365251034 -2.0222946731373668 L149.20445798616856 34.83987563569099 L0.8088685451075435 40.20134117919952" stroke="none" stroke-width="0" fill="#C896EF" vector-effect="non-scaling-stroke" data-shape-part="fill" stroke-opacity="1" fill-opacity="1"></path><path d="M0 0 C44.389408684115914 -3.5786578712585473, 81.94182832588267 -3.9900744912746453, 147.390625 0 M0 0 C37.80903567812493 -1.0425570333834187, 76.41810436539527 -1.462176072084476, 147.390625 0 M147.390625 0 C146.37651520462373 9.966472522213389, 148.45029344649652 20.701312049007573, 147.390625 37.30780029296875 M147.390625 0 C149.03553965849207 8.943411401133273, 149.22956489188002 18.53866651539735, 147.390625 37.30780029296875 M147.390625 37.30780029296875 C91.85008578741544 35.35177309849496, 36.54964845149951 38.21212504842515, 0 37.30780029296875 M147.390625 37.30780029296875 C109.97712142019445 35.94319182898303, 73.46863957352761 37.97501455511352, 0 37.30780029296875 M0 37.30780029296875 C0.2566097254403556 28.251567609659087, 0.5076245243199791 22.362361935069167, 0 0 M0 37.30780029296875 C0.09844201917217762 28.33378741008375, -0.8700493413729807 22.517898036691474, 0 0" stroke="#000000" stroke-width="1" fill="none" vector-effect="non-scaling-stroke" data-shape-part="outline" stroke-opacity="1" fill-opacity="1"></path></g></g><g transform="translate(106.86953125, 354.8653900146484) rotate(0)"><text transform="translate(0, 7)" style="font-size: 14px; font-family: &quot;Comic Sans MS&quot;; fill: rgb(17, 17, 17); opacity: 1; stroke-width: 0; font-style: normal; font-weight: normal; text-decoration: none;"><tspan dominant-baseline="text-before-edge" x="8.4296875" y="0">Selecionar Animal</tspan></text></g></g><g><g transform="translate(131.5, 445)  rotate(0)  "><g><path d="M-0.5081604458391666 -1.412881102412939 L131.12880542501807 1.879171047359705 L131.77812710031867 38.59355977550149 L0.8959813378751278 39.222960863262415" stroke="none" stroke-width="0" fill="#C896EF" vector-effect="non-scaling-stroke" data-shape-part="fill" stroke-opacity="1" fill-opacity="1"></path><path d="M0 0 C39.299816155456945 -1.785257280844962, 78.70512176980266 1.007874666672433, 130.3125 0 M0 0 C31.382248549140062 2.0997622651455456, 64.43704531970434 0.0660722298023757, 130.3125 0 M130.3125 0 C133.19928659336247 11.78846414328707, 129.9230251445023 20.556496145895974, 130.3125 37.30780029296875 M130.3125 0 C132.07117566618834 11.636634525110118, 131.24833169732008 19.570383465314492, 130.3125 37.30780029296875 M130.3125 37.30780029296875 C97.56355441210326 38.17230495721451, 67.29287407617085 39.35216328412643, 0 37.30780029296875 M130.3125 37.30780029296875 C90.21621707605664 35.90146715627634, 49.22535907966085 35.255407583579654, 0 37.30780029296875 M0 37.30780029296875 C-0.82040431894687 32.23814927870865, 1.3394838293609301 22.439081987188956, 0 0 M0 37.30780029296875 C-1.416792154336332 27.547504479703797, -1.387337386632322 18.803650888959552, 0 0" stroke="#000000" stroke-width="1" fill="none" vector-effect="non-scaling-stroke" data-shape-part="outline" stroke-opacity="1" fill-opacity="1"></path></g></g><g transform="translate(138.015625, 446.8653900146484) rotate(0)"><text transform="translate(0, 7)" style="font-size: 14px; font-family: &quot;Comic Sans MS&quot;; fill: rgb(17, 17, 17); opacity: 1; stroke-width: 0; font-style: normal; font-weight: normal; text-decoration: none;"><tspan dominant-baseline="text-before-edge" x="7.1953125" y="0">Valor da Aposta</tspan></text></g></g><g><g transform="translate(275.5, 305)  rotate(0)  "><g><path d="M2.614693181589246 -2.1454315055161715 L89.37581248767674 2.6080356370657682 L91.98825206048787 36.98647035472095 L-1.654006166383624 38.77615804784" stroke="none" stroke-width="0" fill="#C896EF" vector-effect="non-scaling-stroke" data-shape-part="fill" stroke-opacity="1" fill-opacity="1"></path><path d="M0 0 C32.03067604285717 -1.526787697367232, 70.4998722657758 -2.136186121992629, 91.50001525878906 0 M0 0 C33.17224485235296 -0.9615955943639357, 69.98313296109453 1.1972109978620926, 91.50001525878906 0 M91.50001525878906 0 C93.40165201833743 15.807284159019602, 93.09735701492328 29.432479687765266, 91.50001525878906 37.30781555175781 M91.50001525878906 0 C91.27075150099637 13.65671063304383, 92.58451580491902 25.550091068194575, 91.50001525878906 37.30781555175781 M91.50001525878906 37.30781555175781 C57.48680264873236 35.94196641790519, 25.526646623346792 36.50669747936378, 0 37.30781555175781 M91.50001525878906 37.30781555175781 C62.98067434095388 35.754943921818516, 33.85326965731721 37.58843503858068, 0 37.30781555175781 M0 37.30781555175781 C2.142982827659899 30.87822805615322, -2.4568405876194896 19.977254707183562, 0 0 M0 37.30781555175781 C-0.31086337066277636 24.25165990161547, 0.367919777864369 10.794474985987417, 0 0" stroke="#000000" stroke-width="1" fill="none" vector-effect="non-scaling-stroke" data-shape-part="outline" stroke-opacity="1" fill-opacity="1"></path></g></g><g transform="translate(280.07500076293945, 306.8653907775879) rotate(0)"><text transform="translate(0, 7)" style="font-size: 14px; font-family: &quot;Comic Sans MS&quot;; fill: rgb(17, 17, 17); opacity: 1; stroke-width: 0; font-style: normal; font-weight: normal; text-decoration: none;"><tspan dominant-baseline="text-before-edge" x="8.6640625" y="0">Confirmar</tspan></text></g></g><g><g transform="translate(523.5, 273)  rotate(0)  "><g><path d="M-2.5051894448697567 2.0003066919744015 L119.46836027875543 -2.2688076831400394 L121.04835912957788 37.16353591904044 L1.4778490997850895 34.56171127781272" stroke="none" stroke-width="0" fill="#F5A6C4" vector-effect="non-scaling-stroke" data-shape-part="fill" stroke-opacity="1" fill-opacity="1"></path><path d="M0 0 C25.539902460155066 1.0872611081661088, 50.84176963260209 -2.6248657429157394, 120.66403198242188 0 M0 0 C29.70243592936462 0.4998762092721285, 60.31268327504229 2.3337924561631502, 120.66403198242188 0 M120.66403198242188 0 C122.04127466756128 9.995417418603523, 118.21596217232965 17.966374070742575, 120.66403198242188 37.30781555175781 M120.66403198242188 0 C118.7556228876585 10.462653207924776, 119.67963835005703 20.07974325931929, 120.66403198242188 37.30781555175781 M120.66403198242188 37.30781555175781 C79.8461725797128 38.22633371383736, 35.909727743192775 37.57547853023598, 0 37.30781555175781 M120.66403198242188 37.30781555175781 C96.06089250828587 36.962518266996, 70.122793182572 36.63207065280304, 0 37.30781555175781 M0 37.30781555175781 C-0.4111277363598887 25.83511318218794, 2.156755874365514 14.338277871699855, 0 0 M0 37.30781555175781 C1.3258269375089171 30.973924993589065, -1.1831448132273195 22.865323677762433, 0 0" stroke="#000000" stroke-width="1" fill="none" vector-effect="non-scaling-stroke" data-shape-part="outline" stroke-opacity="1" fill-opacity="1"></path></g></g><g transform="translate(529.5332015991211, 274.8653907775879) rotate(0)"><text transform="translate(0, 7)" style="font-size: 14px; font-family: &quot;Comic Sans MS&quot;; fill: rgb(17, 17, 17); opacity: 1; stroke-width: 0; font-style: normal; font-weight: normal; text-decoration: none;"><tspan dominant-baseline="text-before-edge" x="7.4296875" y="0">Administrador</tspan></text></g></g><g><g transform="translate(374.5, 234)  rotate(0)  "><g><path d="M-0.4017742434516549 -2.044505654834211 L92.14409799780697 -0.393985359929502 L96.40925334300846 36.227498413063586 L-1.988601909019053 39.5050652930513" stroke="none" stroke-width="0" fill="#F5A6C4" vector-effect="non-scaling-stroke" data-shape-part="fill" stroke-opacity="1" fill-opacity="1"></path><path d="M0 0 C25.841393412662 0.0939876784493755, 53.475349011110666 -2.2583086441347766, 94.4765625 0 M0 0 C20.910019067744 2.6686046990846446, 39.43041381598305 1.5294678929542351, 94.4765625 0 M94.4765625 0 C95.40753862342295 13.19645230158276, 91.98009795031008 23.12072447897954, 94.4765625 37.30781555175781 M94.4765625 0 C93.49808620547091 9.948914154853604, 93.80594206486975 21.729094250503792, 94.4765625 37.30781555175781 M94.4765625 37.30781555175781 C63.55757404038377 38.56201318898773, 27.49871124073252 38.411485741525645, 0 37.30781555175781 M94.4765625 37.30781555175781 C73.30856895910183 35.831984669158594, 52.7066069417182 37.40627922136559, 0 37.30781555175781 M0 37.30781555175781 C-1.375664692069566 26.876200056445576, 2.1195459257111193 20.661284177185546, 0 0 M0 37.30781555175781 C0.48816121890152747 28.622581451581688, -0.7601419411698456 17.06011883757988, 0 0" stroke="#000000" stroke-width="1" fill="none" vector-effect="non-scaling-stroke" data-shape-part="outline" stroke-opacity="1" fill-opacity="1"></path></g></g><g transform="translate(379.223828125, 235.8653907775879) rotate(0)"><text transform="translate(0, 7)" style="font-size: 14px; font-family: &quot;Comic Sans MS&quot;; fill: rgb(17, 17, 17); opacity: 1; stroke-width: 0; font-style: normal; font-weight: normal; text-decoration: none;"><tspan dominant-baseline="text-before-edge" x="8.0234375" y="0">Dashboard</tspan></text></g></g><g><g transform="translate(217.5, 212)  rotate(0)  "><g><path d="M2.16183774266392 2.069676130078733 L100.22710003051905 -1.013801814056933 L99.6632586577907 35.10711076762527 L-0.2206348618492484 37.04239922668785" stroke="none" stroke-width="0" fill="#F5A6C4" vector-effect="non-scaling-stroke" data-shape-part="fill" stroke-opacity="1" fill-opacity="1"></path><path d="M0 0 C38.86986919199553 0.1647143123152639, 78.45516688628994 0.03640932416943565, 100.89062499999999 0 M0 0 C24.130688255066342 1.6612709303078737, 49.14228789717017 0.09828743233061688, 100.89062499999999 0 M100.89062499999999 0 C102.45937083707067 14.4996059282445, 98.17150522814008 24.75370290162873, 100.89062499999999 37.30781555175781 M100.89062499999999 0 C100.78797854398793 13.80968938726162, 101.21269190227098 26.04472839795376, 100.89062499999999 37.30781555175781 M100.89062499999999 37.30781555175781 C73.58750950698303 37.979757952336875, 52.05424352389817 36.04793848360023, 0 37.30781555175781 M100.89062499999999 37.30781555175781 C68.34698198431141 37.68699060392384, 33.100173682867904 37.830100894093555, 0 37.30781555175781 M0 37.30781555175781 C1.276008514832225 28.109007571598205, 0.29321378297683265 21.49392040866924, 0 0 M0 37.30781555175781 C0.2761302966377368 23.620132814140128, 0.8916767466566196 7.387509784152865, 0 0" stroke="#000000" stroke-width="1" fill="none" vector-effect="non-scaling-stroke" data-shape-part="outline" stroke-opacity="1" fill-opacity="1"></path></g></g><g transform="translate(222.54453125, 213.8653907775879) rotate(0)"><text transform="translate(0, 7)" style="font-size: 14px; font-family: &quot;Comic Sans MS&quot;; fill: rgb(17, 17, 17); opacity: 1; stroke-width: 0; font-style: normal; font-weight: normal; text-decoration: none;"><tspan dominant-baseline="text-before-edge" x="6.3203125" y="0">Estatísticas</tspan></text></g></g><g><g transform="translate(345.5, 147)  rotate(0)  "><g><path d="M-2.546105087734759 0.9613099554553628 L78.29910978581756 2.7347211996093392 L80.63327634241432 38.59639023337513 L-1.211543650366366 36.88426871690899" stroke="none" stroke-width="0" fill="#F5A6C4" vector-effect="non-scaling-stroke" data-shape-part="fill" stroke-opacity="1" fill-opacity="1"></path><path d="M0 0 C19.180919446705957 -0.14712266435890342, 41.22596088089631 0.7382476199600205, 78.90625 0 M0 0 C30.204990141603048 1.5024457016661472, 60.92386789768352 1.3854401001408405, 78.90625 0 M78.90625 0 C76.46480964111738 15.482644187374696, 76.97160024928503 23.682308708493977, 78.90625 37.30781555175781 M78.90625 0 C79.19129192295058 14.077240813142815, 78.04029859068378 28.76734202977495, 78.90625 37.30781555175781 M78.90625 37.30781555175781 C57.623840693660895 37.607567080045555, 41.33577039054944 38.966648378158425, 0 37.30781555175781 M78.90625 37.30781555175781 C50.48137361877889 39.46793234728466, 19.761429927690187 39.49113117538582, 0 37.30781555175781 M0 37.30781555175781 C-1.7797902296164214 24.63935876515145, 1.7190181245229066 8.514890088111354, 0 0 M0 37.30781555175781 C0.7256474898646307 24.088714747032192, -0.24690098003645422 12.423302877776408, 0 0" stroke="#000000" stroke-width="1" fill="none" vector-effect="non-scaling-stroke" data-shape-part="outline" stroke-opacity="1" fill-opacity="1"></path></g></g><g transform="translate(349.4453125, 148.8653907775879) rotate(0)"><text transform="translate(0, 7)" style="font-size: 14px; font-family: &quot;Comic Sans MS&quot;; fill: rgb(17, 17, 17); opacity: 1; stroke-width: 0; font-style: normal; font-weight: normal; text-decoration: none;"><tspan dominant-baseline="text-before-edge" x="8.0859375" y="0">Gráficos</tspan></text></g></g><g><g transform="translate(527.5, 180)  rotate(0)  "><g><path d="M1.8422054685652256 -0.8998268879950047 L152.29225761070848 -2.4450500048696995 L154.82718295231462 40.24393021687865 L-2.808999951928854 38.07113599404693" stroke="none" stroke-width="0" fill="#F5A6C4" vector-effect="non-scaling-stroke" data-shape-part="fill" stroke-opacity="1" fill-opacity="1"></path><path d="M0 0 C44.195285845713755 -0.6924577581190995, 91.52850387651114 -0.7916075813078812, 153.83596801757812 0 M0 0 C40.654870820209425 1.7275939343984468, 81.7588786407859 -0.8691314698640958, 153.83596801757812 0 M153.83596801757812 0 C152.97793541854276 14.82922917214873, 154.42277882998837 28.09329288046246, 153.83596801757812 37.30781555175781 M153.83596801757812 0 C152.45474879039293 12.144694409036589, 152.64457283509736 26.71847693562796, 153.83596801757812 37.30781555175781 M153.83596801757812 37.30781555175781 C111.49546228622282 41.83145278992875, 63.3197616132574 38.132014575626684, 0 37.30781555175781 M153.83596801757812 37.30781555175781 C93.76044672834809 36.97996109973623, 37.054416209741134 39.17806983243658, 0 37.30781555175781 M0 37.30781555175781 C0.13136737152014033 28.69654911131275, -0.09071273998346074 22.864029093247893, 0 0 M0 37.30781555175781 C-0.7560465897249642 29.734373075942216, -0.9491304124521676 22.438404647742743, 0 0" stroke="#000000" stroke-width="1" fill="none" vector-effect="non-scaling-stroke" data-shape-part="outline" stroke-opacity="1" fill-opacity="1"></path></g></g><g transform="translate(535.191798400879, 181.8653907775879) rotate(0)"><text transform="translate(0, 7)" style="font-size: 14px; font-family: &quot;Comic Sans MS&quot;; fill: rgb(17, 17, 17); opacity: 1; stroke-width: 0; font-style: normal; font-weight: normal; text-decoration: none;"><tspan dominant-baseline="text-before-edge" x="6.71875" y="0">Gestão de Sorteios</tspan></text></g></g><g><g transform="translate(455.5, 100)  rotate(0)  "><g><path d="M-1.8482468454167247 -2.723475110717118 L169.5391500564292 -2.308262092061341 L166.2867735894397 35.53511159401387 L1.9913949938490987 37.935559826903045" stroke="none" stroke-width="0" fill="#F5A6C4" vector-effect="non-scaling-stroke" data-shape-part="fill" stroke-opacity="1" fill-opacity="1"></path><path d="M0 0 C35.876923305212316 1.1239361252889188, 72.89028976065438 -3.7268738362684695, 168.40621948242188 0 M0 0 C64.88059071150569 -0.8164846193056129, 128.81690200701277 -0.6783766489486717, 168.40621948242188 0 M168.40621948242188 0 C166.65821273641072 11.971622507416741, 169.41382263617 27.17848610291836, 168.40621948242188 37.30781173706055 M168.40621948242188 0 C168.6786719617899 12.265128743281313, 170.250948598748 26.770270391657398, 168.40621948242188 37.30781173706055 M168.40621948242188 37.30781173706055 C131.73479216430707 40.16610972287388, 98.35776441779726 35.908246767542074, 0 37.30781173706055 M168.40621948242188 37.30781173706055 C134.19564939131754 39.70242711483918, 99.59257185281776 40.90229217290364, 0 37.30781173706055 M0 37.30781173706055 C-2.437337080849806 25.123337870358498, 2.789504279480776 10.147682293107746, 0 0 M0 37.30781173706055 C0.30393323041817144 22.469140502827834, -0.7740329381046633 9.14903866959482, 0 0" stroke="#000000" stroke-width="1" fill="none" vector-effect="non-scaling-stroke" data-shape-part="outline" stroke-opacity="1" fill-opacity="1"></path></g></g><g transform="translate(463.9203109741211, 101.86539058685302) rotate(0)"><text transform="translate(0, 7)" style="font-size: 14px; font-family: &quot;Comic Sans MS&quot;; fill: rgb(17, 17, 17); opacity: 1; stroke-width: 0; font-style: normal; font-weight: normal; text-decoration: none;"><tspan dominant-baseline="text-before-edge" x="6.6875" y="0">Listagem de Sorteios</tspan></text></g></g><g><g transform="translate(675.5, 118)  rotate(0)  "><g><path d="M0.9216944547370076 1.113024610094726 L113.5687663825229 -2.445136738009751 L113.56233203131707 36.270111757330596 L-2.999860796146095 35.02732478361577" stroke="none" stroke-width="0" fill="#F5A6C4" vector-effect="non-scaling-stroke" data-shape-part="fill" stroke-opacity="1" fill-opacity="1"></path><path d="M0 0 C33.704106682980644 -1.380084797241616, 75.09805318820146 -0.8894021059059378, 110.75781250000001 0 M0 0 C35.244027023798125 -0.4855058769388051, 72.33476452229226 -0.7204223702354283, 110.75781250000001 0 M110.75781250000001 0 C109.74680737005743 12.353331142997314, 108.82530755149396 28.361464789990226, 110.75781250000001 37.30781555175781 M110.75781250000001 0 C111.63670966495748 9.583549106324604, 109.77655269672151 20.6366879289384, 110.75781250000001 37.30781555175781 M110.75781250000001 37.30781555175781 C85.80288071592878 36.39720463547612, 58.427386944882166 36.444274274443636, 0 37.30781555175781 M110.75781250000001 37.30781555175781 C72.32394347462034 36.164363003535655, 35.44582255568676 35.137901595993426, 0 37.30781555175781 M0 37.30781555175781 C-2.480666649753236 21.658005044100328, -2.616054636651658 13.46843955247381, 0 0 M0 37.30781555175781 C1.2832053078454788 24.441909668931935, -0.3646151201683228 11.951292904489137, 0 0" stroke="#000000" stroke-width="1" fill="none" vector-effect="non-scaling-stroke" data-shape-part="outline" stroke-opacity="1" fill-opacity="1"></path></g></g><g transform="translate(681.037890625, 119.86539077758789) rotate(0)"><text transform="translate(0, 7)" style="font-size: 14px; font-family: &quot;Comic Sans MS&quot;; fill: rgb(17, 17, 17); opacity: 1; stroke-width: 0; font-style: normal; font-weight: normal; text-decoration: none;"><tspan dominant-baseline="text-before-edge" x="6.8828125" y="0">Novo Sorteio</tspan></text></g></g><g><g transform="translate(760.5, 316)  rotate(0)  "><g><path d="M2.495491345413029 -2.1372655676677823 L122.53815810848027 0.16442945133894682 L119.65842058230191 37.708993847481906 L2.5743878977373242 39.6329022301361" stroke="none" stroke-width="0" fill="#F7EAA6" vector-effect="non-scaling-stroke" data-shape-part="fill" stroke-opacity="1" fill-opacity="1"></path><path d="M0 0 C38.68317576948466 -4.097577907488085, 77.88416117306625 -1.6215634423944723, 120.484375 0 M0 0 C28.81481787528465 0.6036001257059251, 61.04894771126275 2.102463897263733, 120.484375 0 M120.484375 0 C120.34855201851714 15.653882646863797, 120.12965148698676 29.32457050574102, 120.484375 37.35469055175781 M120.484375 0 C121.14129572035692 9.179569575742093, 120.57640931429289 17.88548632905301, 120.484375 37.35469055175781 M120.484375 37.35469055175781 C73.51664246866567 37.64929378716588, 23.609925607519102 34.48035547821164, 0 37.35469055175781 M120.484375 37.35469055175781 C83.48693263294552 37.34229373120041, 43.1501248333865 36.16529709778995, 0 37.35469055175781 M0 37.35469055175781 C1.3897609093702044 25.38304397715911, 2.0862904468095507 9.090878650931714, 0 0 M0 37.35469055175781 C0.048483228572705483 21.35782496913331, 0.5361814706409962 7.316030286773941, 0 0" stroke="#000000" stroke-width="1" fill="none" vector-effect="non-scaling-stroke" data-shape-part="outline" stroke-opacity="1" fill-opacity="1"></path></g></g><g transform="translate(766.52421875, 317.8677345275879) rotate(0)"><text transform="translate(0, 7)" style="font-size: 14px; font-family: &quot;Comic Sans MS&quot;; fill: rgb(17, 17, 17); opacity: 1; stroke-width: 0; font-style: normal; font-weight: normal; text-decoration: none;"><tspan dominant-baseline="text-before-edge" x="8.59375" y="0">Configurações</tspan></text></g></g><g><g transform="translate(804.5, 238)  rotate(0)  "><g><path d="M0.2646693857386708 1.8559189913794398 L181.44844537694007 1.164602774195373 L182.9233256848529 36.466636586003006 L2.7470190497115254 38.71123917680234" stroke="none" stroke-width="0" fill="#F7EAA6" vector-effect="non-scaling-stroke" data-shape-part="fill" stroke-opacity="1" fill-opacity="1"></path><path d="M0 0 C61.273280239465386 -2.880213216423763, 117.45501943917334 -0.7164128874538072, 180.3828125 0 M0 0 C45.30379409261587 1.0770013105216276, 94.21491339779605 1.341898373896147, 180.3828125 0 M180.3828125 0 C177.2690304586926 7.2970495982871215, 181.50502518511206 16.825768535925597, 180.3828125 37.35469055175781 M180.3828125 0 C178.8551364667966 8.059771415544898, 180.4212905146434 15.866508617997617, 180.3828125 37.35469055175781 M180.3828125 37.35469055175781 C138.72505972875587 36.29142794870236, 95.2147312502624 39.916827627647905, 0 37.35469055175781 M180.3828125 37.35469055175781 C141.61441694109163 37.946606164889054, 103.89271469372179 38.45221539409609, 0 37.35469055175781 M0 37.35469055175781 C2.3141979970260906 25.423373441799797, 1.5199593402668286 17.154135758301745, 0 0 M0 37.35469055175781 C0.6868997589226028 28.503906568211875, -0.1972378268365601 19.250643463670084, 0 0" stroke="#000000" stroke-width="1" fill="none" vector-effect="non-scaling-stroke" data-shape-part="outline" stroke-opacity="1" fill-opacity="1"></path></g></g><g transform="translate(813.519140625, 239.86773452758788) rotate(0)"><text transform="translate(0, 7)" style="font-size: 14px; font-family: &quot;Comic Sans MS&quot;; fill: rgb(17, 17, 17); opacity: 1; stroke-width: 0; font-style: normal; font-weight: normal; text-decoration: none;"><tspan dominant-baseline="text-before-edge" x="6.546875" y="0">Taxa de Administração</tspan></text></g></g><g><g transform="translate(940.5, 299)  rotate(0)  "><g><path d="M-0.37349911965429783 0.8239951673895121 L126.52385005913676 0.9693295899778605 L127.96176282130183 39.76408761180937 L0.7086107488721609 36.657274359837174" stroke="none" stroke-width="0" fill="#F7EAA6" vector-effect="non-scaling-stroke" data-shape-part="fill" stroke-opacity="1" fill-opacity="1"></path><path d="M0 0 C26.765785255879752 -0.04298809196901865, 55.587789320276364 -1.6190542879338319, 125.45312500000001 0 M0 0 C35.022639494118636 0.30940271844956435, 70.85051376039047 -0.7008415616503044, 125.45312500000001 0 M125.45312500000001 0 C125.84508493868832 13.81781458934883, 123.81780431000713 28.32695576150198, 125.45312500000001 37.30781555175781 M125.45312500000001 0 C127.08619712577347 14.194078792785021, 126.5924431263018 25.01223043811453, 125.45312500000001 37.30781555175781 M125.45312500000001 37.30781555175781 C93.47027046080622 40.24245356480693, 63.10482569292071 38.250085641547194, 0 37.30781555175781 M125.45312500000001 37.30781555175781 C93.82984841027356 37.575333157509014, 59.655272886512094 38.79847777816598, 0 37.30781555175781 M0 37.30781555175781 C2.539883649564941 25.61029476542636, 0.4460556270849303 13.59994123057751, 0 0 M0 37.30781555175781 C-1.362659151863894 24.54567254831376, 0.9753529772044807 9.23810747048472, 0 0" stroke="#000000" stroke-width="1" fill="none" vector-effect="non-scaling-stroke" data-shape-part="outline" stroke-opacity="1" fill-opacity="1"></path></g></g><g transform="translate(946.77265625, 300.8653907775879) rotate(0)"><text transform="translate(0, 7)" style="font-size: 14px; font-family: &quot;Comic Sans MS&quot;; fill: rgb(17, 17, 17); opacity: 1; stroke-width: 0; font-style: normal; font-weight: normal; text-decoration: none;"><tspan dominant-baseline="text-before-edge" x="9.59375" y="0">Prêmio Mínimo</tspan></text></g></g><g><g transform="translate(871.5, 380)  rotate(0)  "><g><path d="M-2.1001329459249973 0.4825672544538975 L126.49612724408507 0.175386730581522 L124.58505940064788 38.32731646671891 L1.0652230940759182 36.69177443161607" stroke="none" stroke-width="0" fill="#F7EAA6" vector-effect="non-scaling-stroke" data-shape-part="fill" stroke-opacity="1" fill-opacity="1"></path><path d="M0 0 C42.91185317070631 -1.1387104459899997, 89.20564151692088 0.42530029333647734, 124.4921875 0 M0 0 C30.069164607222774 1.7441094298359532, 57.73691053039511 1.2828275938030858, 124.4921875 0 M124.4921875 0 C125.06824756534243 13.07874121109378, 126.58813918502474 25.58351878379249, 124.4921875 37.30780029296875 M124.4921875 0 C123.87474263427224 12.024791532733094, 125.9937040281054 23.56147702145686, 124.4921875 37.30780029296875 M124.4921875 37.30780029296875 C89.98955413165095 32.947891260995675, 54.25250171174412 35.36817183674793, 0 37.30780029296875 M124.4921875 37.30780029296875 C75.24552757990023 38.1632972315907, 29.990909368701978 38.27821397343869, 0 37.30780029296875 M0 37.30780029296875 C-0.730795946052716 24.43948558998784, -0.6651966237336853 8.436685407562663, 0 0 M0 37.30780029296875 C-1.6996564540715702 23.02310730028837, 1.0356722798494808 11.275821793376188, 0 0" stroke="#000000" stroke-width="1" fill="none" vector-effect="non-scaling-stroke" data-shape-part="outline" stroke-opacity="1" fill-opacity="1"></path></g></g><g transform="translate(877.724609375, 381.8653900146484) rotate(0)"><text transform="translate(0, 7)" style="font-size: 14px; font-family: &quot;Comic Sans MS&quot;; fill: rgb(17, 17, 17); opacity: 1; stroke-width: 0; font-style: normal; font-weight: normal; text-decoration: none;"><tspan dominant-baseline="text-before-edge" x="9.03125" y="0">Probabilidades</tspan></text></g></g><g><g transform="translate(698.5, 247)  rotate(0)  "><g><path d="M-2.385836315341294 -2.7047778395935893 L60.950154977850616 -0.28781417291611433 L66.20330916624516 40.025829371996224 L-0.7548832716420293 36.337410119362175" stroke="none" stroke-width="0" fill="#F7EAA6" vector-effect="non-scaling-stroke" data-shape-part="fill" stroke-opacity="1" fill-opacity="1"></path><path d="M0 0 C15.988517160134508 0.2290095460957673, 25.35404729112634 -0.2982327269965026, 63.28125 0 M0 0 C19.202350719526294 -0.6128727002542291, 37.00609392285696 1.1546630309421744, 63.28125 0 M63.28125 0 C64.53943511845921 9.373124682870817, 63.89365082981441 15.487620353820049, 63.28125 37.30781555175781 M63.28125 0 C64.0489740023279 11.13631575136258, 62.742581526365264 25.714961253587134, 63.28125 37.30781555175781 M63.28125 37.30781555175781 C48.92524232195865 38.116046664315945, 33.330734468851006 34.168434289294964, 0 37.30781555175781 M63.28125 37.30781555175781 C43.896921993538854 35.87665182100682, 25.661773809377337 36.69755802797226, 0 37.30781555175781 M0 37.30781555175781 C-1.7840083659831538 25.79001827927714, -2.8690111757461088 13.98827891551774, 0 0 M0 37.30781555175781 C1.2459938147418785 27.81356437446113, 0.7982029089086342 17.30040489160514, 0 0" stroke="#000000" stroke-width="1" fill="none" vector-effect="non-scaling-stroke" data-shape-part="outline" stroke-opacity="1" fill-opacity="1"></path></g></g><g transform="translate(701.6640625, 248.8653907775879) rotate(0)"><text transform="translate(0, 7)" style="font-size: 14px; font-family: &quot;Comic Sans MS&quot;; fill: rgb(17, 17, 17); opacity: 1; stroke-width: 0; font-style: normal; font-weight: normal; text-decoration: none;"><tspan dominant-baseline="text-before-edge" x="7.796875" y="0">Salvar</tspan></text></g></g><g><g transform="translate(666.5, 439)  rotate(0)  "><g><path d="M-1.2935439823195338 1.3384294537827373 L95.38285104651004 -0.2174464138224721 L93.69884587544948 36.47674161475152 L-0.033456224016845226 36.34241077583283" stroke="none" stroke-width="0" fill="#B4DFF0" vector-effect="non-scaling-stroke" data-shape-part="fill" stroke-opacity="1" fill-opacity="1"></path><path d="M0 0 C25.06045085257574 1.8096446532175832, 42.23888397069095 2.7445369202063374, 96.0546875 0 M0 0 C25.75115416616245 1.018079805475827, 52.74306266239 -0.13782071759069364, 96.0546875 0 M96.0546875 0 C93.5418850320971 15.584634708026336, 98.24651102606416 25.49941434575227, 96.0546875 37.30780029296875 M96.0546875 0 C95.66631178387344 10.17694958194399, 97.65370210834682 18.657642241795692, 96.0546875 37.30780029296875 M96.0546875 37.30780029296875 C58.570698102976166 37.97798758107219, 21.517294266341196 38.70995893436466, 0 37.30780029296875 M96.0546875 37.30780029296875 C67.3374519383251 37.36632931866061, 35.617409289850904 37.11128195263755, 0 37.30780029296875 M0 37.30780029296875 C0.33558375311629973 25.82871438435106, 1.42693803382652 16.572327390551834, 0 0 M0 37.30780029296875 C0.3268593234831886 28.021250187848345, -0.7544349299853249 21.351766330582322, 0 0" stroke="#000000" stroke-width="1" fill="none" vector-effect="non-scaling-stroke" data-shape-part="outline" stroke-opacity="1" fill-opacity="1"></path></g></g><g transform="translate(671.302734375, 440.8653900146484) rotate(0)"><text transform="translate(0, 7)" style="font-size: 14px; font-family: &quot;Comic Sans MS&quot;; fill: rgb(17, 17, 17); opacity: 1; stroke-width: 0; font-style: normal; font-weight: normal; text-decoration: none;"><tspan dominant-baseline="text-before-edge" x="8.21875" y="0">Resultados</tspan></text></g></g><g><g transform="translate(652.5, 531)  rotate(0)  "><g><path d="M-0.9224082408472896 0.4318060604855418 L123.11659569758922 -1.9028316708281636 L125.81866745371372 39.110708507709205 L-1.8175662634894252 39.56669539492577" stroke="none" stroke-width="0" fill="#B4DFF0" vector-effect="non-scaling-stroke" data-shape-part="fill" stroke-opacity="1" fill-opacity="1"></path><path d="M0 0 C47.970656143417 1.5083083132734463, 94.4556602247234 0.29818009533788425, 123.40625 0 M0 0 C47.60005257450103 -2.145229962995363, 95.03172364568455 -1.5278069501426943, 123.40625 0 M123.40625 0 C122.18300461519861 10.27654589526772, 121.57041659701967 25.711025997073342, 123.40625 37.30780029296875 M123.40625 0 C122.46773822553493 11.164371625180246, 124.39400136418678 22.599500894332085, 123.40625 37.30780029296875 M123.40625 37.30780029296875 C73.73958152708656 36.50346110806, 30.274301619065227 37.9199407850219, 0 37.30780029296875 M123.40625 37.30780029296875 C90.85717552207352 39.31172923359656, 55.821595097536914 37.94307303044581, 0 37.30780029296875 M0 37.30780029296875 C-0.93479375318512 28.31576854780416, -2.831002605714646 16.785889957064896, 0 0 M0 37.30780029296875 C-0.826370957652168 27.64745369982982, 0.19011263235466036 20.63966269020144, 0 0" stroke="#000000" stroke-width="1" fill="none" vector-effect="non-scaling-stroke" data-shape-part="outline" stroke-opacity="1" fill-opacity="1"></path></g></g><g transform="translate(658.6703125, 532.8653900146485) rotate(0)"><text transform="translate(0, 7)" style="font-size: 14px; font-family: &quot;Comic Sans MS&quot;; fill: rgb(17, 17, 17); opacity: 1; stroke-width: 0; font-style: normal; font-weight: normal; text-decoration: none;"><tspan dominant-baseline="text-before-edge" x="7.7734375" y="0">Último Sorteio</tspan></text></g></g><g><g transform="translate(811.5, 481)  rotate(0)  "><g><path d="M0.7206570580601692 -1.1631503775715828 L175.59937424212694 -1.0747082903981209 L172.787364192307 35.69597714394331 L-2.3152266070246696 35.00425260514021" stroke="none" stroke-width="0" fill="#B4DFF0" vector-effect="non-scaling-stroke" data-shape-part="fill" stroke-opacity="1" fill-opacity="1"></path><path d="M0 0 C39.59999926357996 -2.9858248457231094, 76.38540289490484 0.8657164350233505, 174.03125 0 M0 0 C57.582874737610105 -0.5026526069536339, 115.38523299605585 0.33557096959208144, 174.03125 0 M174.03125 0 C174.9436385275031 17.27827750723268, 176.4733953119422 26.86207727006486, 174.03125 37.30780029296875 M174.03125 0 C173.15584367374487 7.936859882284217, 173.877856074372 17.373404012688027, 174.03125 37.30780029296875 M174.03125 37.30780029296875 C111.37030073583591 38.68932799971779, 51.76675796420314 40.31819777167519, 0 37.30780029296875 M174.03125 37.30780029296875 C115.7115294233663 35.71101855835761, 55.886957412352785 36.592340584610355, 0 37.30780029296875 M0 37.30780029296875 C-2.0399698519170237 28.591890326563906, -0.8707935118138744 12.429182802983902, 0 0 M0 37.30780029296875 C1.043820536575597 25.078919286436257, -0.7883739109417979 15.217890643639201, 0 0" stroke="#000000" stroke-width="1" fill="none" vector-effect="non-scaling-stroke" data-shape-part="outline" stroke-opacity="1" fill-opacity="1"></path></g></g><g transform="translate(820.2015625, 482.8653900146484) rotate(0)"><text transform="translate(0, 7)" style="font-size: 14px; font-family: &quot;Comic Sans MS&quot;; fill: rgb(17, 17, 17); opacity: 1; stroke-width: 0; font-style: normal; font-weight: normal; text-decoration: none;"><tspan dominant-baseline="text-before-edge" x="5.59375" y="0">Resultados Anteriores</tspan></text></g></g></svg>